<mxfile host="Electron" modified="2024-04-11T02:42:18.853Z" agent="Mozilla/5.0 (Macintosh; Intel Mac OS X 10_15_7) AppleWebKit/537.36 (KHTML, like Gecko) draw.io/22.1.18 Chrome/120.0.6099.199 Electron/28.1.2 Safari/537.36" etag="OnOEuhLFypzp8dmplVJC" version="22.1.18" type="device">
  <diagram name="第 1 页" id="YkZ-crnKk8mhjwdHUlSD">
    <mxGraphModel dx="2060" dy="1104" grid="1" gridSize="10" guides="1" tooltips="1" connect="1" arrows="1" fold="1" page="1" pageScale="1" pageWidth="827" pageHeight="1169" math="0" shadow="0">
      <root>
        <mxCell id="0" />
        <mxCell id="1" parent="0" />
        <mxCell id="pZMyhNOI0UIP7ZEqHQ5e-1" value="" style="rounded=1;whiteSpace=wrap;html=1;fillColor=none;" parent="1" vertex="1">
          <mxGeometry x="210" y="359" width="180" height="180" as="geometry" />
        </mxCell>
        <mxCell id="pZMyhNOI0UIP7ZEqHQ5e-2" value="&lt;font style=&quot;font-size: 18px;&quot;&gt;&lt;b&gt;Trainer&lt;/b&gt;&lt;/font&gt;" style="text;html=1;strokeColor=none;fillColor=none;align=center;verticalAlign=middle;whiteSpace=wrap;rounded=0;" parent="1" vertex="1">
          <mxGeometry x="270" y="360" width="60" height="30" as="geometry" />
        </mxCell>
        <mxCell id="pZMyhNOI0UIP7ZEqHQ5e-3" value="&lt;font style=&quot;font-size: 14px;&quot;&gt;train_loop&lt;/font&gt;" style="rounded=0;whiteSpace=wrap;html=1;fillColor=#F5F5F5;fontFamily=Garamond;fontStyle=2" parent="1" vertex="1">
          <mxGeometry x="225" y="390" width="150" height="30" as="geometry" />
        </mxCell>
        <mxCell id="pZMyhNOI0UIP7ZEqHQ5e-4" value="&lt;font style=&quot;font-size: 14px;&quot;&gt;ScalingConfig&lt;/font&gt;" style="rounded=0;whiteSpace=wrap;html=1;fillColor=#F5F5F5;fontFamily=Garamond;fontStyle=2" parent="1" vertex="1">
          <mxGeometry x="225" y="430" width="150" height="30" as="geometry" />
        </mxCell>
        <mxCell id="pZMyhNOI0UIP7ZEqHQ5e-5" value="&lt;span style=&quot;font-size: 14px;&quot;&gt;&lt;font&gt;ray.data&lt;/font&gt;&lt;/span&gt;" style="rounded=0;whiteSpace=wrap;html=1;fillColor=#90C9E6;fontFamily=Garamond;fontStyle=2" parent="1" vertex="1">
          <mxGeometry x="225" y="470" width="150" height="30" as="geometry" />
        </mxCell>
        <mxCell id="pZMyhNOI0UIP7ZEqHQ5e-6" value="&lt;font style=&quot;font-size: 14px;&quot;&gt;prepare_data_loader&lt;/font&gt;" style="rounded=0;whiteSpace=wrap;html=1;fillColor=#90C9E6;fontFamily=Garamond;fontStyle=2" parent="1" vertex="1">
          <mxGeometry x="225" y="500" width="150" height="30" as="geometry" />
        </mxCell>
        <mxCell id="pZMyhNOI0UIP7ZEqHQ5e-8" value="" style="rounded=1;whiteSpace=wrap;html=1;fillColor=none;" parent="1" vertex="1">
          <mxGeometry x="450" y="367" width="160" height="90" as="geometry" />
        </mxCell>
        <mxCell id="pZMyhNOI0UIP7ZEqHQ5e-9" value="" style="endArrow=classic;html=1;rounded=0;exitX=1;exitY=0.5;exitDx=0;exitDy=0;entryX=0;entryY=0.5;entryDx=0;entryDy=0;entryPerimeter=0;strokeWidth=1.5;" parent="1" target="pZMyhNOI0UIP7ZEqHQ5e-8" edge="1">
          <mxGeometry width="50" height="50" relative="1" as="geometry">
            <mxPoint x="390" y="412" as="sourcePoint" />
            <mxPoint x="490" y="243" as="targetPoint" />
          </mxGeometry>
        </mxCell>
        <mxCell id="pZMyhNOI0UIP7ZEqHQ5e-10" value="&lt;font face=&quot;Garamond&quot; style=&quot;font-size: 18px;&quot;&gt;&lt;i&gt;.fit()&lt;/i&gt;&lt;/font&gt;" style="text;html=1;strokeColor=none;fillColor=none;align=center;verticalAlign=middle;whiteSpace=wrap;rounded=0;strokeWidth=1.5;" parent="1" vertex="1">
          <mxGeometry x="390" y="380" width="60" height="30" as="geometry" />
        </mxCell>
        <mxCell id="pZMyhNOI0UIP7ZEqHQ5e-11" value="&lt;b&gt;Checkpoint&lt;/b&gt;" style="text;html=1;strokeColor=none;fillColor=none;align=center;verticalAlign=middle;whiteSpace=wrap;rounded=0;fontSize=18;" parent="1" vertex="1">
          <mxGeometry x="500" y="367" width="60" height="30" as="geometry" />
        </mxCell>
        <mxCell id="pZMyhNOI0UIP7ZEqHQ5e-12" value="&lt;b&gt;&lt;font style=&quot;font-size: 14px;&quot;&gt;本地&lt;/font&gt;&lt;/b&gt;" style="rounded=0;whiteSpace=wrap;html=1;fillColor=#E6D0DE;" parent="1" vertex="1">
          <mxGeometry x="460" y="408" width="60" height="40" as="geometry" />
        </mxCell>
        <mxCell id="pZMyhNOI0UIP7ZEqHQ5e-13" value="&lt;span style=&quot;font-size: 14px;&quot;&gt;&lt;b&gt;持久化&lt;/b&gt;&lt;/span&gt;" style="rounded=0;whiteSpace=wrap;html=1;fillColor=#E6D0DE;" parent="1" vertex="1">
          <mxGeometry x="540" y="408" width="60" height="40" as="geometry" />
        </mxCell>
        <mxCell id="pZMyhNOI0UIP7ZEqHQ5e-14" value="" style="endArrow=classic;html=1;rounded=0;exitX=1;exitY=0.5;exitDx=0;exitDy=0;entryX=0;entryY=0.5;entryDx=0;entryDy=0;" parent="1" source="pZMyhNOI0UIP7ZEqHQ5e-12" target="pZMyhNOI0UIP7ZEqHQ5e-13" edge="1">
          <mxGeometry width="50" height="50" relative="1" as="geometry">
            <mxPoint x="590" y="738" as="sourcePoint" />
            <mxPoint x="640" y="688" as="targetPoint" />
          </mxGeometry>
        </mxCell>
        <mxCell id="-tJ4ZFR9xjcvRMVxW-Dr-1" value="" style="rounded=0;whiteSpace=wrap;html=1;fillColor=none;" vertex="1" parent="1">
          <mxGeometry x="396" y="465" width="215" height="70" as="geometry" />
        </mxCell>
        <mxCell id="-tJ4ZFR9xjcvRMVxW-Dr-2" value="&lt;span style=&quot;font-size: 18px;&quot;&gt;&lt;b&gt;Ray 集群&lt;/b&gt;&lt;/span&gt;" style="text;html=1;strokeColor=none;fillColor=none;align=center;verticalAlign=middle;whiteSpace=wrap;rounded=0;" vertex="1" parent="1">
          <mxGeometry x="463.5" y="464" width="80" height="30" as="geometry" />
        </mxCell>
        <mxCell id="-tJ4ZFR9xjcvRMVxW-Dr-3" value="Worker" style="rounded=0;whiteSpace=wrap;html=1;fontSize=14;fillColor=none;strokeColor=#36393d;fontFamily=Times New Roman;" vertex="1" parent="1">
          <mxGeometry x="403.5" y="497" width="60" height="30" as="geometry" />
        </mxCell>
        <mxCell id="-tJ4ZFR9xjcvRMVxW-Dr-4" value="Worker" style="rounded=0;whiteSpace=wrap;html=1;fontSize=14;fillColor=none;strokeColor=#36393d;fontFamily=Times New Roman;" vertex="1" parent="1">
          <mxGeometry x="473.5" y="497" width="60" height="30" as="geometry" />
        </mxCell>
        <mxCell id="-tJ4ZFR9xjcvRMVxW-Dr-5" value="Worker" style="rounded=0;whiteSpace=wrap;html=1;fontSize=14;fillColor=none;strokeColor=#36393d;fontFamily=Times New Roman;" vertex="1" parent="1">
          <mxGeometry x="543.5" y="497" width="60" height="30" as="geometry" />
        </mxCell>
        <mxCell id="-tJ4ZFR9xjcvRMVxW-Dr-6" value="" style="endArrow=classic;startArrow=classic;html=1;rounded=0;" edge="1" parent="1">
          <mxGeometry width="50" height="50" relative="1" as="geometry">
            <mxPoint x="420" y="462" as="sourcePoint" />
            <mxPoint x="420" y="412" as="targetPoint" />
          </mxGeometry>
        </mxCell>
      </root>
    </mxGraphModel>
  </diagram>
</mxfile>
